<svg width="48" height="48" viewBox="0 0 48 48" fill="none" xmlns="http://www.w3.org/2000/svg">
<rect width="47.9992" height="48" rx="23.9996" fill="#42396E"/>
<path fill-rule="evenodd" clip-rule="evenodd" d="M24.3158 8.05132C24.1106 7.98289 23.8886 7.98289 23.6834 8.05132L23.9996 9C23.6834 8.05132 23.6833 8.05133 23.6832 8.05135L23.6829 8.05146L23.6817 8.05188L23.6767 8.05354L23.6569 8.06012L23.5793 8.08602L23.2791 8.18608L22.1634 8.55798L18.3802 9.81909L8.68387 13.0513C8.21247 13.2085 7.92796 13.6879 8.01589 14.177L9.00011 14C8.01589 14.177 8.01594 14.1773 8.01601 14.1776L8.01624 14.1789L8.017 14.1831L8.01977 14.1983L8.03029 14.2551C8.03953 14.3046 8.05322 14.3771 8.07142 14.471C8.10782 14.6588 8.16225 14.9324 8.23508 15.2796C8.38072 15.9737 8.60014 16.9627 8.89642 18.1486C9.48818 20.5172 10.3902 23.6858 11.629 26.8633C12.8634 30.0293 14.4548 33.2635 16.4473 35.7232C18.4335 38.175 20.9401 40 23.9996 40C27.0591 40 29.5657 38.175 31.5518 35.7232C33.5444 33.2635 35.1357 30.0293 36.3702 26.8633C37.609 23.6858 38.511 20.5172 39.1028 18.1486C39.399 16.9627 39.6185 15.9737 39.7641 15.2796C39.8369 14.9324 39.8914 14.6588 39.9278 14.471C39.946 14.3771 39.9597 14.3046 39.9689 14.2551L39.9794 14.1983L39.9822 14.1831L39.983 14.1789L39.9832 14.1776C39.9833 14.1773 39.9833 14.177 38.9991 14L39.9833 14.177C40.0712 13.6879 39.7867 13.2085 39.3153 13.0513L29.6189 9.81909L25.8358 8.55798L24.7201 8.18608L24.4199 8.08602L24.3422 8.06012L24.3225 8.05354L24.3175 8.05188L24.3168 8.05163L24.3162 8.05146L24.3159 8.05135C24.3159 8.05133 24.3158 8.05132 23.9996 9L24.3158 8.05132ZM10.1925 14.8689C10.1779 14.7996 10.1642 14.7334 10.1512 14.6704L19.0127 11.7164L22.7959 10.4553L23.9116 10.0834L23.9996 10.0541L24.0876 10.0834L25.2033 10.4553L28.9865 11.7164L37.848 14.6704C37.835 14.7334 37.8213 14.7996 37.8067 14.8689C37.6655 15.5419 37.4517 16.506 37.1624 17.6639C36.5831 19.9828 35.7048 23.0642 34.5068 26.1367C33.3044 29.2207 31.8024 32.2365 29.9978 34.4643C28.1867 36.7 26.1923 38 23.9996 38C21.8069 38 19.8125 36.7 18.0014 34.4643C16.1968 32.2365 14.6948 29.2207 13.4924 26.1367C12.2944 23.0642 11.4161 19.9828 10.8368 17.6639C10.5475 16.506 10.3337 15.5419 10.1925 14.8689ZM32.3771 17.4858C32.6454 17.0031 32.4716 16.3942 31.9888 16.1259C31.5061 15.8576 30.8973 16.0315 30.629 16.5142L23.7973 28.8064L18.7323 23.3216C18.3576 22.9158 17.725 22.8906 17.3192 23.2653C16.9135 23.64 16.8883 24.2727 17.263 24.6784L23.2654 31.1784C23.483 31.4141 23.8005 31.531 24.1189 31.4929C24.4374 31.4548 24.7183 31.2662 24.8741 30.9858L32.3771 17.4858Z" fill="#EBEEFA"/>
</svg>
