<svg width="48" height="48" viewBox="0 0 48 48" fill="none" xmlns="http://www.w3.org/2000/svg">
<rect x="-0.000732422" width="48" height="48" rx="24" fill="#42396E"/>
<path d="M23.2729 9.47176C23.5112 8.98889 23.6304 8.74745 23.7942 8.67378C23.9246 8.61511 24.0739 8.61511 24.2044 8.67378C24.3682 8.74745 24.4873 8.98889 24.7256 9.47176L28.5131 17.146C28.5835 17.2886 28.6187 17.3599 28.6707 17.4148C28.713 17.4594 28.7631 17.4959 28.8186 17.5223C28.8869 17.5548 28.9656 17.5662 29.123 17.5891L37.592 18.8197C38.1249 18.8972 38.3913 18.9359 38.512 19.0689C38.6081 19.1748 38.6542 19.3168 38.6387 19.459C38.6193 19.6375 38.4265 19.8255 38.0409 20.2013L31.9127 26.1749C31.7988 26.2859 31.7418 26.3414 31.7057 26.4078C31.6763 26.4618 31.6572 26.5208 31.6492 26.5818C31.6394 26.6567 31.6528 26.7351 31.6797 26.8918L33.1264 35.3267C33.2174 35.8574 33.2629 36.1227 33.1737 36.2786C33.1027 36.4028 32.9819 36.4905 32.8419 36.5197C32.6661 36.5564 32.4277 36.4311 31.9511 36.1805L24.3762 32.1982C24.2354 32.1242 24.165 32.0871 24.0907 32.0733C24.0303 32.0621 23.9683 32.0621 23.9078 32.0733C23.8335 32.0871 23.7631 32.1242 23.6223 32.1982L16.0474 36.1805C15.5708 36.4311 15.3325 36.5564 15.1567 36.5197C15.0167 36.4905 14.8959 36.4028 14.8248 36.2786C14.7356 36.1227 14.7811 35.8574 14.8721 35.3267L16.3188 26.8918C16.3457 26.7351 16.3592 26.6567 16.3493 26.5818C16.3414 26.5208 16.3222 26.4618 16.2928 26.4078C16.2567 26.3414 16.1998 26.2859 16.0859 26.1749L9.95763 20.2013C9.57204 19.8255 9.37924 19.6375 9.35979 19.459C9.34429 19.3168 9.39044 19.1748 9.48655 19.0689C9.60722 18.9359 9.87366 18.8972 10.4065 18.8197L18.8756 17.5891C19.033 17.5662 19.1117 17.5548 19.1799 17.5223C19.2354 17.4959 19.2856 17.4594 19.3279 17.4148C19.3799 17.3599 19.4151 17.2886 19.4854 17.146L23.2729 9.47176Z" fill="#42396E" stroke="#EBEEFA" stroke-width="1.5"/>
</svg>
