<svg width="656" height="344" viewBox="0 0 656 344" fill="none" xmlns="http://www.w3.org/2000/svg">
<rect x="24.0612" y="24" width="43.4803" height="296" rx="8.7727" fill="#EB5599"/>
<path d="M143.166 153.487C132.777 147.53 119.491 151.068 113.491 161.389L81.3322 216.714L113.134 248.301C113.157 248.261 113.181 248.221 113.204 248.181L151.114 182.964C157.114 172.642 153.555 159.445 143.166 153.487Z" fill="#EFC944"/>
<path d="M30.362 227.11C21.8793 218.685 21.8793 205.025 30.362 196.6C38.8446 188.174 52.5977 188.174 61.0803 196.6L148.079 283.01C156.562 291.436 156.562 305.096 148.079 313.521C139.596 321.946 125.843 321.946 117.361 313.521L30.362 227.11Z" fill="#A13489"/>
<path fill-rule="evenodd" clip-rule="evenodd" d="M386.336 320C434.363 320 473.297 281.307 473.297 233.577C473.297 185.847 434.363 147.154 386.336 147.154C338.309 147.154 299.375 185.847 299.375 233.577C299.375 281.307 338.309 320 386.336 320ZM386.336 276.789C410.35 276.789 429.817 257.442 429.817 233.577C429.817 209.712 410.35 190.365 386.336 190.365C362.323 190.365 342.856 209.712 342.856 233.577C342.856 257.442 362.323 276.789 386.336 276.789Z" fill="#EB6064"/>
<rect x="429.817" y="24" width="43.4803" height="230.462" rx="8.7727" fill="#FC9332"/>
<path d="M570.801 319.997C571.264 319.997 571.73 319.997 572.196 319.997C579.547 319.997 586.847 318.777 593.791 316.386C600.789 314.017 607.28 310.373 612.93 305.642C618.687 300.768 623.369 294.771 626.686 288.025C630.212 280.934 632 272.955 632 264.313C632 255.944 630.052 248.464 626.209 242.07C622.642 236.186 617.916 231.074 612.314 227.037C606.934 223.17 601.114 219.942 594.974 217.419C589.303 215.055 583.389 212.802 577.394 210.715L576.873 210.546C575.052 209.99 572.925 209.333 570.383 208.531C568.252 207.856 566.048 207.065 563.827 206.166C562.421 205.6 561.019 204.953 559.638 204.235L559.176 204.008C557.456 202.995 556.05 201.535 555.11 199.785C554.17 198.036 553.733 196.064 553.845 194.085C553.958 192.105 554.617 190.195 555.749 188.561C556.882 186.927 558.445 185.633 560.268 184.819C561.608 184.282 563.023 183.951 564.464 183.837C565.025 183.79 565.593 183.772 566.165 183.772C570.098 183.771 573.959 184.822 577.34 186.815C580.721 188.808 583.496 191.668 585.374 195.094V195.126C587.861 200.159 592.219 204.04 597.533 205.954C602.847 207.869 608.702 207.667 613.869 205.392C619.036 203.117 623.112 198.946 625.241 193.754C627.371 188.563 627.387 182.755 625.288 177.552C625.288 177.552 624.421 175.483 623.9 174.602C621.31 170.161 618.073 166.123 614.292 162.62C610.582 159.193 606.416 156.288 601.909 153.984C597.353 151.67 592.519 149.939 587.522 148.833C582.417 147.702 577.201 147.139 571.971 147.154C565.665 147.183 559.4 148.169 553.396 150.078C547.144 152.019 541.261 154.975 535.986 158.826C530.461 162.864 525.84 167.994 522.416 173.891C518.675 180.31 516.778 187.624 516.778 195.632C516.778 203.885 518.89 211.206 523.057 217.398C526.666 222.759 531.276 227.386 536.638 231.03C541.588 234.393 546.92 237.166 552.525 239.29C557.409 241.149 562.126 242.731 566.551 243.983C571.238 245.655 575.86 247.395 580.289 249.161C583.83 250.539 587.212 252.288 590.378 254.377C592.607 255.883 594.413 257.511 595.477 259.562C596.291 261.006 596.721 262.633 596.726 264.287C596.726 267.8 596.125 270.663 594.905 273.039C593.674 275.503 591.924 277.677 589.773 279.414C587.448 281.293 584.793 282.732 581.943 283.66C580.393 284.181 578.791 284.53 577.164 284.703C576.622 284.75 576.072 284.764 575.522 284.764C571.733 284.758 568.017 283.738 564.765 281.812C561.513 279.886 558.846 277.126 557.045 273.822V273.793C554.657 268.945 550.468 265.201 545.356 263.349C540.244 261.496 534.607 261.678 529.627 263.857C524.648 266.035 520.713 270.04 518.649 275.032C516.584 280.024 516.551 285.615 518.555 290.631C518.555 290.631 519.385 292.646 519.888 293.476C522.375 297.755 525.485 301.648 529.117 305.029C532.687 308.334 536.697 311.14 541.034 313.368C545.416 315.604 550.067 317.28 554.874 318.354C559.788 319.451 564.81 320.004 569.847 320L570.801 319.997Z" fill="#55AD88"/>
<path d="M197.921 276.789H255.895V317.076C255.895 318.691 254.586 320.001 252.971 320.001H200.845C199.23 320.001 197.921 318.691 197.921 317.076V276.789Z" fill="#66B0ED"/>
<ellipse cx="226.908" cy="168.759" rx="21.6058" ry="21.7403" transform="rotate(90 226.908 168.759)" fill="#55AD88"/>
<path d="M212.415 67.9321C204.41 67.9321 197.921 74.3831 197.921 82.3409L197.921 124.828L226.908 115.299L255.895 124.828L255.895 82.3409C255.895 74.3831 249.406 67.9321 241.401 67.9321H212.415Z" fill="#2F7BF6"/>
</svg>