<svg xmlns="http://www.w3.org/2000/svg" viewBox="0 0 1080 1080"><defs><style>.cls-1{fill:#efc944;}.cls-2{fill:#a13489;}.cls-3{fill:#eb5599;}.cls-4{fill:#66b0ed;}.cls-5{fill:#55ad88;}.cls-6{fill:#2f7bf6;}.cls-7{fill:#eb6064;fill-rule:evenodd;}.cls-8{fill:#fc9332;}.cls-9{fill:#55ad89;}</style></defs><title>logo kids</title><g id="Capa_10" data-name="Capa 10"><path class="cls-1" d="M249.16,509.55a34.37,34.37,0,0,0-46.86,12.52l-50.78,87.66,50.22,50a1.18,1.18,0,0,1,.11-.19l59.86-103.34A34.13,34.13,0,0,0,249.16,509.55Z"/><path class="cls-2" d="M71.05,626.2a34.24,34.24,0,1,1,48.5-48.34L256.91,714.77a34.24,34.24,0,1,1-48.5,48.34Z"/><path class="cls-3" d="M95.42,304.38h0a34.33,34.33,0,0,1,34.33,34.32V739.06a34.32,34.32,0,0,1-34.33,34.32h0A34.32,34.32,0,0,1,61.1,739.06V338.7A34.33,34.33,0,0,1,95.42,304.38Z"/><path class="cls-4" d="M335.61,704.91h91.54v41.58a26.89,26.89,0,0,1-26.9,26.89H362.51a26.89,26.89,0,0,1-26.9-26.89Z"/><ellipse class="cls-5" cx="381.38" cy="533.75" rx="34.33" ry="34.23"/><path class="cls-6" d="M358.5,374a22.86,22.86,0,0,0-22.89,22.83v67.32L381.38,449l45.77,15.1V396.82A22.86,22.86,0,0,0,404.27,374Z"/><path class="cls-7" d="M633.11,773.38c75.83,0,137.3-61.31,137.3-136.93s-61.47-136.94-137.3-136.94S495.8,560.82,495.8,636.45,557.28,773.38,633.11,773.38Zm0-68.47a68.47,68.47,0,1,0-68.65-68.46A68.55,68.55,0,0,0,633.11,704.91Z"/><path class="cls-8" d="M736.09,304.38h0a34.33,34.33,0,0,1,34.33,34.32V635.22a34.33,34.33,0,0,1-34.33,34.32h0a34.33,34.33,0,0,1-34.33-34.32V338.7A34.33,34.33,0,0,1,736.09,304.38Z"/><path class="cls-9" d="M924.37,773.37h2.2a104.09,104.09,0,0,0,34.1-5.72,93.78,93.78,0,0,0,30.22-17,86.65,86.65,0,0,0,21.72-27.91,83.82,83.82,0,0,0,8.39-37.57c0-13.26-3.08-25.12-9.15-35.25a81.34,81.34,0,0,0-21.93-23.82,134.57,134.57,0,0,0-27.38-15.23c-8.95-3.75-18.3-7.32-27.76-10.63L934,600c-2.88-.88-6.24-1.92-10.25-3.19-3.36-1.07-6.84-2.32-10.35-3.74-2.22-.9-4.44-1.93-6.61-3.06l-.74-.36a17.3,17.3,0,0,1-6.42-6.7,17.13,17.13,0,0,1,8.15-23.71,22.5,22.5,0,0,1,6.62-1.55c.89-.08,1.79-.11,2.69-.11a34.54,34.54,0,0,1,30.33,17.94v0a34.47,34.47,0,0,0,63-27.84s-1.37-3.28-2.19-4.68A82.7,82.7,0,0,0,993,524a87.66,87.66,0,0,0-19.55-13.68,95.63,95.63,0,0,0-22.72-8.17,112,112,0,0,0-24.56-2.66,97.93,97.93,0,0,0-29.32,4.64A93.35,93.35,0,0,0,869.4,518,78.08,78.08,0,0,0,848,541.88a67.69,67.69,0,0,0-8.9,34.44c0,13.08,3.33,24.68,9.92,34.49a80,80,0,0,0,21.44,21.6,120.66,120.66,0,0,0,25.08,13.09c7.72,2.94,15.16,5.45,22.15,7.44,7.4,2.64,14.7,5.4,21.69,8.2a84.44,84.44,0,0,1,15.93,8.26c3.52,2.39,6.37,5,8.05,8.22a15.49,15.49,0,0,1,2,7.49c0,5.56-.95,10.1-2.88,13.86a30.44,30.44,0,0,1-8.1,10.1A38.79,38.79,0,0,1,942,715.8a35.25,35.25,0,0,1-7.54,1.65c-.86.08-1.73.1-2.6.1a33.26,33.26,0,0,1-29.17-17.34v0a33.21,33.21,0,0,0-60.77,26.68,48.12,48.12,0,0,0,2.1,4.5,80,80,0,0,0,14.57,18.31,84.52,84.52,0,0,0,18.82,13.21,92.26,92.26,0,0,0,21.85,7.9,108.07,108.07,0,0,0,23.65,2.61Z"/><path class="cls-1" d="M249.16,509.55a34.37,34.37,0,0,0-46.86,12.52l-50.78,87.66,50.22,50a1.18,1.18,0,0,1,.11-.19l59.86-103.34A34.13,34.13,0,0,0,249.16,509.55Z"/><path class="cls-2" d="M71.05,626.2a34.24,34.24,0,1,1,48.5-48.34L256.91,714.77a34.24,34.24,0,1,1-48.5,48.34Z"/><path class="cls-3" d="M95.42,304.38h0a34.33,34.33,0,0,1,34.33,34.32V739.06a34.32,34.32,0,0,1-34.33,34.32h0A34.32,34.32,0,0,1,61.1,739.06V338.7A34.33,34.33,0,0,1,95.42,304.38Z"/><path class="cls-4" d="M335.61,704.91h91.54v41.58a26.89,26.89,0,0,1-26.9,26.89H362.51a26.89,26.89,0,0,1-26.9-26.89Z"/><ellipse class="cls-5" cx="381.38" cy="533.75" rx="34.33" ry="34.23"/><path class="cls-6" d="M358.5,374a22.86,22.86,0,0,0-22.89,22.83v67.32L381.38,449l45.77,15.1V396.82A22.86,22.86,0,0,0,404.27,374Z"/><path class="cls-7" d="M633.11,773.38c75.83,0,137.3-61.31,137.3-136.93s-61.47-136.94-137.3-136.94S495.8,560.82,495.8,636.45,557.28,773.38,633.11,773.38Zm0-68.47a68.47,68.47,0,1,0-68.65-68.46A68.55,68.55,0,0,0,633.11,704.91Z"/><path class="cls-8" d="M736.09,304.38h0a34.33,34.33,0,0,1,34.33,34.32V635.22a34.33,34.33,0,0,1-34.33,34.32h0a34.33,34.33,0,0,1-34.33-34.32V338.7A34.33,34.33,0,0,1,736.09,304.38Z"/><path class="cls-9" d="M924.37,773.37h2.2a104.09,104.09,0,0,0,34.1-5.72,93.78,93.78,0,0,0,30.22-17,86.65,86.65,0,0,0,21.72-27.91,83.82,83.82,0,0,0,8.39-37.57c0-13.26-3.08-25.12-9.15-35.25a81.34,81.34,0,0,0-21.93-23.82,134.57,134.57,0,0,0-27.38-15.23c-8.95-3.75-18.3-7.32-27.76-10.63L934,600c-2.88-.88-6.24-1.92-10.25-3.19-3.36-1.07-6.84-2.32-10.35-3.74-2.22-.9-4.44-1.93-6.61-3.06l-.74-.36a17.3,17.3,0,0,1-6.42-6.7,17.13,17.13,0,0,1,8.15-23.71,22.5,22.5,0,0,1,6.62-1.55c.89-.08,1.79-.11,2.69-.11a34.54,34.54,0,0,1,30.33,17.94v0a34.47,34.47,0,0,0,63-27.84s-1.37-3.28-2.19-4.68A82.7,82.7,0,0,0,993,524a87.66,87.66,0,0,0-19.55-13.68,95.63,95.63,0,0,0-22.72-8.17,112,112,0,0,0-24.56-2.66,97.93,97.93,0,0,0-29.32,4.64A93.35,93.35,0,0,0,869.4,518,78.08,78.08,0,0,0,848,541.88a67.69,67.69,0,0,0-8.9,34.44c0,13.08,3.33,24.68,9.92,34.49a80,80,0,0,0,21.44,21.6,120.66,120.66,0,0,0,25.08,13.09c7.72,2.94,15.16,5.45,22.15,7.44,7.4,2.64,14.7,5.4,21.69,8.2a84.44,84.44,0,0,1,15.93,8.26c3.52,2.39,6.37,5,8.05,8.22a15.49,15.49,0,0,1,2,7.49c0,5.56-.95,10.1-2.88,13.86a30.44,30.44,0,0,1-8.1,10.1A38.79,38.79,0,0,1,942,715.8a35.25,35.25,0,0,1-7.54,1.65c-.86.08-1.73.1-2.6.1a33.26,33.26,0,0,1-29.17-17.34v0a33.21,33.21,0,0,0-60.77,26.68,48.12,48.12,0,0,0,2.1,4.5,80,80,0,0,0,14.57,18.31,84.52,84.52,0,0,0,18.82,13.21,92.26,92.26,0,0,0,21.85,7.9,108.07,108.07,0,0,0,23.65,2.61Z"/></g></svg>